<svg width="33" height="33" viewBox="0 0 33 33" fill="none" xmlns="http://www.w3.org/2000/svg">
    <circle cx="16.5" cy="16.5" r="16" fill="white" stroke="#E8E8E8"/>
    <path d="M27 16.6526C27 15.3554 25.9651 14.3253 24.7043 14.3253C24.0833 14.3253 23.5188 14.5733 23.1048 14.9739C21.5242 13.8293 19.3602 13.0853 16.9516 12.99L18.0054 7.99197L21.4301 8.73594C21.4677 9.61345 22.1828 10.3193 23.0672 10.3193C23.9704 10.3193 24.7043 9.5753 24.7043 8.65964C24.7043 7.74398 23.9704 7 23.0672 7C22.4274 7 21.8629 7.38153 21.5995 7.93474L17.7796 7.11446C17.6667 7.09538 17.5538 7.11446 17.4785 7.17169C17.3844 7.22892 17.328 7.3243 17.3091 7.43876L16.1425 13.009C13.6962 13.0853 11.4946 13.8293 9.89516 14.993C9.48118 14.5924 8.91667 14.3444 8.2957 14.3444C7.01613 14.3444 6 15.3936 6 16.6717C6 17.6255 6.56452 18.4267 7.35484 18.7892C7.31721 19.0181 7.29839 19.247 7.29839 19.495C7.29839 23.0813 11.4194 26 16.5 26C21.5806 26 25.7016 23.1004 25.7016 19.495C25.7016 19.2661 25.6828 19.0181 25.6452 18.7892C26.4355 18.4267 27 17.6064 27 16.6526V16.6526ZM11.2312 18.3122C11.2312 17.3966 11.9651 16.6526 12.8683 16.6526C13.7715 16.6526 14.5054 17.3966 14.5054 18.3122C14.5054 19.2279 13.7715 19.9719 12.8683 19.9719C11.9651 19.991 11.2312 19.2279 11.2312 18.3122V18.3122ZM20.3952 22.7189C19.2661 23.8635 17.121 23.9398 16.5 23.9398C15.8602 23.9398 13.7151 23.8444 12.6048 22.7189C12.4355 22.5472 12.4355 22.2801 12.6048 22.1084C12.7742 21.9367 13.0376 21.9367 13.207 22.1084C13.922 22.8333 15.4274 23.0813 16.5 23.0813C17.5726 23.0813 19.0968 22.8333 19.793 22.1084C19.9624 21.9367 20.2258 21.9367 20.3952 22.1084C20.5457 22.2801 20.5457 22.5472 20.3952 22.7189ZM20.0941 19.991C19.1909 19.991 18.457 19.247 18.457 18.3313C18.457 17.4157 19.1909 16.6717 20.0941 16.6717C20.9973 16.6717 21.7312 17.4157 21.7312 18.3313C21.7312 19.2279 20.9973 19.991 20.0941 19.991Z" fill="#FF4500"/>
</svg>
