<svg width="23" height="23" viewBox="0 0 23 23" fill="none" xmlns="http://www.w3.org/2000/svg">
    <circle cx="11.5" cy="11.5" r="11.5" fill="black"/>
    <g clip-path="url(#clip0_439_13228)">
        <path d="M9.2878 9.75507C10.1214 8.9216 11.5068 8.9216 12.3404 9.75507C13.0901 10.5047 13.201 11.6997 12.5848 12.5618L12.5683 12.5858C12.4139 12.8002 12.114 12.8512 11.8996 12.6967C11.6837 12.5423 11.6327 12.2424 11.7872 12.028L11.8037 12.004C12.147 11.5228 12.093 10.8646 11.6747 10.4463C11.2039 9.97547 10.4378 9.97547 9.96549 10.4463L8.28326 12.13C7.81083 12.5888 7.81083 13.3669 8.28326 13.8392C8.70007 14.2575 9.35977 14.3115 9.83955 13.9681L9.86354 13.9382C10.0794 13.7972 10.3793 13.8467 10.5322 14.0626C10.6867 14.2785 10.6372 14.5784 10.4213 14.7328L10.3973 14.7493C9.5217 15.3655 8.35373 15.2665 7.60422 14.5184C6.75758 13.6713 6.75758 12.2979 7.60422 11.4523L9.2878 9.75507ZM13.7108 13.4869C12.8637 14.334 11.4918 14.334 10.6447 13.4869C9.89503 12.7372 9.79757 11.5557 10.4138 10.6936L10.4303 10.6697C10.5712 10.4552 10.8711 10.4043 11.099 10.5587C11.3149 10.6996 11.3659 10.9995 11.2114 11.2274L11.1949 11.2514C10.8516 11.7192 10.9056 12.3909 11.3239 12.8092C11.7947 13.28 12.5608 13.28 13.0331 12.8092L14.7153 11.1254C15.1876 10.6532 15.1876 9.87501 14.7153 9.41622C14.2985 8.99837 13.6388 8.94379 13.159 9.28728L13.135 9.30378C12.9191 9.45821 12.6193 9.39523 12.4664 9.19253C12.3119 8.97693 12.3614 8.67721 12.5773 8.52323L12.6013 8.50644C13.4634 7.89039 14.6449 7.98813 15.3945 8.73764C16.2416 9.58415 16.2416 10.9575 15.3945 11.8031L13.7108 13.4869Z" fill="white"/>
    </g>
    <defs>
        <clipPath id="clip0_439_13228">
            <rect width="9.06061" height="9.06061" fill="white" transform="translate(6.96973 6.96973)"/>
        </clipPath>
    </defs>
</svg>
