<svg width="33" height="33" viewBox="0 0 33 33" fill="none" xmlns="http://www.w3.org/2000/svg">
    <circle cx="16.5" cy="16.5" r="16" fill="white" stroke="#E8E8E8"/>
    <path d="M25 11.6573C24.3745 11.9384 23.7023 12.1284 22.9968 12.2138C23.7169 11.7764 24.2699 11.0838 24.5303 10.2585C23.8565 10.6635 23.11 10.9576 22.3156 11.1161C21.6793 10.4292 20.7729 10 19.7698 10C17.8436 10 16.2819 11.5824 16.2819 13.5342C16.2819 13.8113 16.3128 14.081 16.3723 14.3397C13.4736 14.1923 10.9037 12.7852 9.18345 10.6469C8.88324 11.1689 8.71124 11.7761 8.71124 12.4238C8.71124 13.6499 9.32703 14.7317 10.2629 15.3655C9.69111 15.3472 9.15336 15.1882 8.68307 14.9235C8.68282 14.9382 8.68282 14.953 8.68282 14.9679C8.68282 16.6803 9.88505 18.1088 11.4806 18.4335C11.1879 18.5143 10.8798 18.5574 10.5617 18.5574C10.3369 18.5574 10.1184 18.5353 9.90551 18.494C10.3493 19.8982 11.6373 20.92 13.1636 20.9486C11.9699 21.8965 10.466 22.4615 8.832 22.4615C8.5505 22.4615 8.27286 22.4448 8 22.4121C9.54349 23.4149 11.3768 24 13.3464 24C19.7616 24 23.2697 18.6145 23.2697 13.9441C23.2697 13.7908 23.2664 13.6384 23.2596 13.4869C23.941 12.9886 24.5324 12.3661 25 11.6573Z" fill="#55ACEE"/>
</svg>
